<svg id="Layer_1" data-name="Layer 1" xmlns="http://www.w3.org/2000/svg" viewBox="0 0 1200 1200"><defs><style>.cls-1{fill:#2e72e7;}.cls-2{fill:#fff;}.cls-3{fill:#fe86b7;}</style></defs><title>dark-blue_sq</title><rect class="cls-1" x="281.43" y="281.43" width="637.14" height="637.14"/><path class="cls-2" d="M636.23,391.44,576.71,582H514.39l-22.56-92.83L469,582H406.62L347.1,391.44h68.3l26.93,112.24,24.12-112.24h50.44L541,503.68l27-112.24Z"/><path class="cls-2" d="M600.62,696.18V815.33H531.35V706.22c0-15.59-11.44-25.64-29.11-25.64s-29.1,10-29.1,25.64V815.33H403.85V624.82h66.87l.69,18.7c15.24-15.26,36-22.17,55.78-22.17C571.18,621.35,600.62,651.14,600.62,696.18Z"/><path class="cls-3" d="M730.89,484.64q19.35,0,28.36,9a36.69,36.69,0,0,1,10.55,22.42q1.53,13.41-3.08,28.79a117.54,117.54,0,0,1-12.31,27.92,73.68,73.68,0,0,1-17.36,20q-9.67,7.47-18,5.28-6.59-1.77-8.57-5.94a18.79,18.79,0,0,1-1.54-9.67,58.45,58.45,0,0,1,2.42-12.09,85.24,85.24,0,0,0,2.86-13.19,35.88,35.88,0,0,1-14.73-10.77q-5.93-7.24-6.81-18.24-2.21-19.78,8.13-31.65T730.89,484.64Zm.44-93.2q20.22,0,30.55,11.65T770,434.52q-1.77,15.39-12.31,23.74t-26.38,8.35q-15.39,0-25.93-8.35t-12.31-23.74q-2.21-19.77,8.13-31.43T731.33,391.44Z"/><path class="cls-2" d="M754.31,815.33,701,750.56v64.77H631.67V623.92H701v57l48.84-56.13h87.3l-84.18,90.06L841.6,815.33Z"/></svg>