<svg id="Layer_1" data-name="Layer 1" xmlns="http://www.w3.org/2000/svg" viewBox="0 0 600 258"><defs><style>.cls-1{fill:#fefdfe;}.cls-2{fill:#fec53d;}</style></defs><path class="cls-1" d="M430,7.9,351.17,236.13H268.6L238.71,124.92,208.42,236.13H125.83L47,7.9h90.48l35.68,134.46,32-134.46h66.82l31.95,134.46L339.57,7.9Z"/><path class="cls-2" d="M505.69,121.26q23.16,0,34,10.8a44,44,0,0,1,12.64,26.86q1.83,16.07-3.69,34.49a141.25,141.25,0,0,1-14.75,33.45q-9.21,15-20.8,24t-21.59,6.32Q483.56,255,481.2,250a22.41,22.41,0,0,1-1.84-11.59A69.48,69.48,0,0,1,482.25,224a102.64,102.64,0,0,0,3.43-15.8A43.11,43.11,0,0,1,468,195.26q-7.11-8.7-8.16-21.86-2.64-23.7,9.74-37.92T505.69,121.26Zm.52-111.64q24.23,0,36.61,14t9.74,37.66q-2.12,18.43-14.75,28.44t-31.6,10q-18.43,0-31.07-10T460.4,61.23q-2.64-23.7,9.74-37.66T506.21,9.62Z"/></svg>